<?xml version="1.0" standalone="no"?>
<!DOCTYPE svg PUBLIC "-//W3C//DTD SVG 20010904//EN"
 "http://www.w3.org/TR/2001/REC-SVG-20010904/DTD/svg10.dtd">
<svg version="1.0" xmlns="http://www.w3.org/2000/svg"
 width="260.000000pt" height="120.000000pt" viewBox="0 0 260.000000 120.000000"
 preserveAspectRatio="xMidYMid meet">
<metadata>
Created by potrace 1.16, written by Peter Selinger 2001-2019
</metadata>
<g transform="translate(0.000000,120.000000) scale(0.100000,-0.100000)"
fill="#AC111E" stroke="none">
<path d="M306 1013 c-3 -3 -6 -13 -6 -22 0 -14 2 -14 10 -1 8 13 10 12 10 -2
0 -23 -15 -23 -39 1 -11 11 -24 15 -31 11 -12 -8 -11 -28 6 -87 l6 -23 -131 0
-131 0 0 -311 0 -311 70 4 c63 3 70 1 74 -18 3 -11 14 -30 24 -42 17 -20 25
-21 108 -16 117 8 249 7 352 -1 92 -8 109 -1 131 53 l11 27 915 -3 915 -2 0
310 0 310 -975 0 c-536 0 -975 3 -975 6 0 3 5 26 11 51 14 54 -1 73 -32 42
-24 -24 -39 -24 -39 -1 0 14 2 15 10 2 8 -12 10 -10 10 8 0 30 -24 24 -28 -6
-4 -27 -22 -19 -22 9 0 24 -18 25 -36 2 -13 -17 -13 -17 -14 0 0 9 -7 17 -15
17 -13 0 -18 -10 -17 -30 0 -3 -11 -5 -24 -5 -16 0 -24 6 -24 18 0 9 -7 17
-15 17 -8 0 -15 -5 -15 -12 0 -9 -3 -9 -12 0 -7 7 -20 12 -31 12 -14 0 -17 -5
-12 -19 3 -11 1 -22 -5 -26 -5 -3 -10 3 -10 14 0 21 -13 35 -24 24z m230 -18
c15 19 15 16 9 -37 -6 -49 -5 -58 9 -58 10 0 13 5 9 16 -4 12 0 15 17 12 28
-4 39 -28 13 -28 -14 0 -15 -2 -4 -9 11 -7 10 -11 -5 -20 -19 -10 -19 -10 0
-11 10 0 25 8 32 18 12 16 13 16 14 -4 0 -40 -21 -54 -90 -58 -49 -3 -55 -2
-25 4 29 5 12 7 -60 7 -72 0 -89 -2 -60 -7 31 -6 26 -7 -25 -5 -42 2 -58 0
-45 -5 20 -8 20 -9 -1 -9 -16 -1 -24 9 -33 40 -14 48 -6 67 10 23 l12 -29 147
0 c82 0 146 3 144 7 -2 3 -13 4 -24 1 -14 -4 -20 0 -20 11 0 9 -8 24 -19 35
-10 10 -21 25 -23 32 -3 8 -9 10 -14 5 -5 -5 -4 -11 4 -13 17 -6 16 -63 -1
-63 -11 0 -14 21 -16 82 -1 75 0 80 14 62 15 -19 15 -19 31 1z m476 -353 c9
-9 20 -29 23 -44 7 -26 5 -28 -23 -28 -22 0 -32 6 -37 20 -4 11 -15 20 -26 20
-18 0 -20 -6 -17 -82 2 -68 6 -83 20 -86 11 -2 18 6 23 27 6 26 11 31 37 31
30 0 30 -1 25 -37 -8 -48 -38 -73 -88 -73 -50 0 -76 25 -84 84 -10 63 2 151
23 169 34 30 93 30 124 -1z m1451 -4 c9 -11 17 -29 17 -39 0 -28 -56 -27 -63
1 -7 25 -27 26 -27 1 0 -10 20 -35 45 -55 39 -33 45 -42 45 -77 0 -52 -27 -79
-79 -79 -31 0 -44 6 -61 27 -28 36 -23 67 12 71 21 3 27 -1 30 -20 4 -29 38
-38 38 -10 0 11 -20 36 -45 56 -39 32 -45 43 -45 74 0 45 8 58 40 71 33 13 71
5 93 -21z m-1288 10 c2 -7 11 -47 20 -89 15 -74 16 -75 44 -71 24 3 29 0 35
-22 15 -59 26 -22 26 84 l0 110 30 0 30 0 0 -117 c0 -135 -8 -153 -71 -153
-21 0 -41 5 -44 10 -5 8 -11 7 -20 0 -22 -19 -60 -8 -63 18 -2 16 -10 22 -27
22 -17 0 -25 -6 -27 -22 -3 -24 -43 -38 -58 -21 -7 6 28 199 45 251 3 6 20 12
40 12 20 0 37 -6 40 -12z m339 -60 c9 -40 20 -91 24 -113 l9 -40 40 85 40 85
-34 3 c-27 3 -33 7 -33 28 0 23 2 24 70 24 68 0 70 -1 70 -25 0 -14 -18 -61
-40 -105 l-40 -80 40 0 c38 0 40 -2 40 -30 l0 -31 -102 3 c-98 3 -103 4 -106
26 -5 33 -49 31 -58 -3 -5 -19 -13 -25 -35 -25 -16 0 -29 3 -29 8 0 4 12 64
27 135 l26 127 38 0 37 0 16 -72z m346 47 c0 -22 -4 -25 -40 -25 -36 0 -40 -2
-40 -25 0 -22 4 -25 40 -25 36 0 40 -3 40 -24 0 -21 -5 -25 -37 -28 -33 -3
-38 -7 -41 -30 -3 -27 -1 -28 37 -28 39 0 41 -2 41 -30 l0 -30 -70 0 -70 0 0
135 0 135 70 0 c68 0 70 -1 70 -25z m85 -110 l0 -130 -30 0 -30 0 -3 133 -3
133 33 -3 33 -3 0 -130z m156 124 c31 -16 41 -54 25 -93 -9 -20 -10 -39 -5
-47 5 -8 9 -29 9 -46 0 -65 17 -31 40 82 l23 115 38 0 c22 0 39 -2 39 -4 0 -3
11 -56 25 -120 32 -147 32 -148 -2 -144 -20 2 -29 9 -31 26 -5 33 -49 31 -58
-3 -6 -25 -9 -26 -68 -23 l-61 3 -5 50 c-4 37 -9 51 -22 53 -15 3 -18 -5 -18
-52 0 -56 0 -56 -30 -56 l-30 0 0 135 0 135 56 0 c30 0 64 -5 75 -11z m-1801
-219 c6 -12 10 -37 8 -56 -3 -35 -6 -37 -67 -57 -57 -19 -66 -19 -90 -6 -55
31 -36 71 46 95 30 9 57 22 60 30 8 20 31 17 43 -6z m350 5 c7 -8 36 -22 65
-31 66 -19 82 -35 67 -68 -16 -35 -45 -40 -113 -20 -66 20 -85 41 -74 82 12
49 33 63 55 37z"/>
</g>
</svg>
